<mxfile host="app.diagrams.net" modified="2023-10-13T18:52:25.522Z" agent="Mozilla/5.0 (Windows NT 10.0; Win64; x64) AppleWebKit/537.36 (KHTML, like Gecko) Chrome/118.0.0.0 Safari/537.36" version="22.0.4" etag="6JoCbaMnyv_o2Q65Wtg7" type="github">
  <diagram name="Page-1" id="y17_fhNgan3JBmSml6ll">
    <mxGraphModel>
      <root>
        <mxCell id="0" />
        <mxCell id="1" parent="0" />
      </root>
    </mxGraphModel>
  </diagram>
</mxfile>
